<svg width="15" height="15" viewBox="0 0 15 15" xmlns="http://www.w3.org/2000/svg"><title>ic_telephone-grey</title><defs><linearGradient x1="50%" y1="3.376%" x2="50%" y2="100%" id="a"><stop stop-color="#F1BF00" offset="0%"/><stop stop-color="#DF8B00" offset="100%"/></linearGradient></defs><path d="M4.71 6.109c-1.717 1.728 2.5 5.971 4.218 4.164l1.328-1.336c.39-.393.937-.393 1.327 0l3.124 3.143c.39.393.39.943 0 1.336l-1.015.943c-1.64 1.65-5.857 0-9.45-3.615C.572 7.13-.99 2.887.65 1.237l.937-.942c.39-.393.937-.393 1.328 0l3.123 3.142c.39.393.39.943 0 1.336L4.711 6.11z" fill="url(#a)" fill-rule="evenodd"/></svg>