<svg width="11" height="15" viewBox="0 0 11 15" xmlns="http://www.w3.org/2000/svg"><title>ic_location-grey</title><defs><linearGradient x1="50%" y1="3.376%" x2="50%" y2="100%" id="a"><stop stop-color="#F1BF00" offset="0%"/><stop stop-color="#DF8B00" offset="100%"/></linearGradient></defs><path d="M5.5 0C2.467 0 0 2.477 0 5.522c0 .795.162 1.553.481 2.255 1.375 3.02 4.012 6.21 4.787 7.116a.306.306 0 0 0 .464 0c.775-.905 3.411-4.095 4.787-7.116.32-.702.481-1.46.481-2.255C11 2.477 8.532 0 5.5 0zm0 8.39a2.866 2.866 0 0 1-2.857-2.868A2.866 2.866 0 0 1 5.5 2.654a2.866 2.866 0 0 1 2.857 2.868A2.866 2.866 0 0 1 5.5 8.391z" fill="url(#a)"/></svg>