<svg width="12" height="13" viewBox="0 0 12 13" xmlns="http://www.w3.org/2000/svg"><title>₽</title><defs><linearGradient x1="50%" y1="3.376%" x2="50%" y2="100%" id="a"><stop stop-color="#F1BF00" offset="0%"/><stop stop-color="#DF8B00" offset="100%"/></linearGradient></defs><path d="M51.7 3737.491h-2.793V3739h-3.132v-1.509H44v-2.41h1.775v-.492H44v-2.42h1.775V3726h5.157c.994 0 1.875.182 2.646.545.77.363 1.366.88 1.789 1.549.422.67.633 1.427.633 2.272 0 1.304-.462 2.333-1.387 3.09-.925.755-2.173 1.133-3.743 1.133h-1.963v.491H51.7v2.411zm-2.793-5.321h1.918c1.333 0 1.999-.596 1.999-1.786 0-.583-.167-1.054-.5-1.41-.333-.358-.788-.54-1.365-.545h-2.052v3.74z" transform="translate(-44 -3726)" fill="url(#a)" fill-rule="evenodd"/></svg>