<svg width="19" height="12" viewBox="0 0 19 12" xmlns="http://www.w3.org/2000/svg"><title>Combined Shape</title><defs><linearGradient x1="50%" y1="3.376%" x2="50%" y2="100%" id="a"><stop stop-color="#F1BF00" offset="0%"/><stop stop-color="#DF8B00" offset="100%"/></linearGradient></defs><path d="M15.5 9c.827 0 1.5.673 1.5 1.5s-.673 1.5-1.5 1.5-1.5-.673-1.5-1.5.673-1.5 1.5-1.5zm-.163-7c.119 0 .231.049.307.133l3.263 3.628c.06.067.093.152.093.239v3.628c0 .205-.18.372-.4.372h-.424c-.198 0-.373-.133-.399-.315-.157-1.12-1.116-1.813-2.277-1.813-1.16 0-2.12.694-2.277 1.813-.025.182-.2.315-.399.315H12.4c-.221 0-.4-.167-.4-.372V2.372c0-.205.179-.372.4-.372h2.937zM.393 10C.176 10 0 9.834 0 9.63V.37C0 .166.176 0 .393 0h11.214c.217 0 .393.166.393.37v9.26c0 .204-.176.37-.393.37H6.665c-.195 0-.367-.132-.392-.314-.155-1.114-1.098-1.804-2.24-1.804-1.142 0-2.085.69-2.24 1.804-.025.182-.197.314-.392.314H.393zM3.5 9c.827 0 1.5.673 1.5 1.5S4.327 12 3.5 12 2 11.327 2 10.5 2.673 9 3.5 9z" fill="url(#a)" fill-rule="evenodd"/></svg>